<svg width="131" height="33" viewBox="0 0 131 33" fill="none" xmlns="http://www.w3.org/2000/svg">
<g clip-path="url(#clip0_8440_10345)">
<path d="M0.874299 11.1076V10.274C0.868571 9.55456 0.999099 8.84127 1.25816 8.1763C1.50156 7.54874 1.86374 6.98071 2.32234 6.50726C2.801 6.03557 3.36064 5.66565 3.97088 5.41757C5.31662 4.88968 6.7962 4.88968 8.14193 5.41757C8.75218 5.66565 9.31182 6.03557 9.79047 6.50726C10.25 6.98213 10.6154 7.5496 10.8649 8.1763C11.1306 8.8395 11.2647 9.5535 11.2591 10.274V11.1076C11.2673 11.8316 11.1337 12.5496 10.8667 13.2161C10.6152 13.8385 10.25 14.4021 9.79219 14.8743C9.31302 15.3452 8.75351 15.7151 8.14364 15.964C6.7975 16.4895 5.31874 16.4895 3.97259 15.964C3.36272 15.7151 2.80322 15.3452 2.32405 14.8743C1.86716 14.4035 1.50513 13.8394 1.25987 13.2161C0.998328 12.5481 0.867167 11.8308 0.874299 11.1076ZM17.2312 21.002V23.7262H1.95562V17.9853H4.78487V21.002H17.2312ZM3.66928 10.274V11.1076C3.64987 11.8174 3.88152 12.5092 4.31876 13.0472C4.54519 13.2969 4.81688 13.4956 5.11753 13.6313C5.41819 13.7671 5.74161 13.837 6.0684 13.837C6.39519 13.837 6.71862 13.7671 7.01927 13.6313C7.31993 13.4956 7.59162 13.2969 7.81805 13.0472C8.25749 12.5105 8.48947 11.8178 8.46753 11.1076V10.274C8.48698 9.56225 8.25123 8.86916 7.80777 8.33431C7.58134 8.08459 7.30965 7.88591 7.00899 7.75019C6.70834 7.61447 6.38491 7.54452 6.05812 7.54452C5.73133 7.54452 5.40791 7.61447 5.10725 7.75019C4.8066 7.88591 4.53491 8.08459 4.30848 8.33431C3.87466 8.87377 3.64669 9.56556 3.66928 10.274ZM17.2672 5.01802V19.1041H14.4516V5.01802H17.2672Z" fill="white"/>
<path d="M28.9098 23.056H19.9834V5.33404H28.9424V8.05826H22.8144V12.7603H28.9715V15.4845H22.8144V20.3391H28.9098V23.056ZM33.0706 15.4718H29.8335V12.7475H33.0706V5.01802H35.8862V23.7407H33.0706V15.4718Z" fill="white"/>
<path d="M49.9762 20.3391V23.0633H38.4844V20.3391H40.4105V9.22241H43.113V20.3391H45.4196V9.22241H48.122V20.3391H49.9762ZM49.9762 5.33404V8.05826H38.4947V5.33404H49.9762ZM54.1952 15.4899V23.7407H51.3591V5.01802H54.1884V12.7639H56.5721V15.4881L54.1952 15.4899Z" fill="white"/>
<path d="M74.2726 20.9711V23.7225H56.5928V20.9711H74.2726ZM73.3044 19.1186H70.4683V15.4863H57.4873V12.7621H70.4683V8.0855H57.4873V5.33404H73.2975L73.3044 19.1186Z" fill="white"/>
<path fill-rule="evenodd" clip-rule="evenodd" d="M95.7851 26.9642H129.77C129.916 26.9642 130.06 26.9337 130.194 26.8745C130.329 26.8153 130.451 26.7285 130.554 26.6192C130.656 26.5098 130.738 26.38 130.793 26.2373C130.848 26.0945 130.876 25.9416 130.875 25.7873V1.17487C130.875 1.01673 130.845 0.860294 130.786 0.714957C130.727 0.56962 130.641 0.438384 130.533 0.329136C130.425 0.219888 130.298 0.134882 130.158 0.0792268C130.018 0.0235715 129.87 -0.00158638 129.72 0.00526835L79.954 2.36626C79.6699 2.37982 79.4016 2.50895 79.205 2.72679C79.0084 2.94463 78.8986 3.23441 78.8984 3.53587V25.7928C78.8984 25.9466 78.927 26.0989 78.9826 26.2411C79.0335 26.3713 79.1061 26.4906 79.1968 26.5934C79.4105 26.8945 79.756 27.1552 80.0297 27.2786L94.1726 32.3638C95.1751 32.7942 95.7851 32.1259 95.7851 31.2868V26.9642ZM84.1767 22.3441V6.33472H87.5783V19.1549H93.5659V22.3513L84.1767 22.3441ZM95.835 6.33472V22.3441H99.2366V6.33472H95.835ZM110.508 22.4657H105.654L101.389 6.45632H104.883L108.081 19.1966L111.282 6.45632H114.775L110.508 22.4657ZM116.135 6.33472V22.3441L125.644 22.3513V19.1549H119.543V15.6607H125.167V12.4624H119.538V9.52933H125.639V6.33472H116.135Z" fill="white"/>
</g>
<defs>
<clipPath id="clip0_8440_10345">
<rect width="130" height="32.5" fill="white" transform="translate(0.874023)"/>
</clipPath>
</defs>
</svg>
